HIERARCHY
ROOT Hips
{
	OFFSET -0.001795 -0.223333 0.028219
	CHANNELS 6 Xposition Yposition Zposition Zrotation Yrotation Xrotation 
	JOINT LeftUpLeg
	{
		OFFSET 0.069520 -0.091406 -0.006815
		CHANNELS 3 Zrotation Yrotation Xrotation
		JOINT LeftLeg
		{
			OFFSET 0.034277 -0.375199 -0.004496
			CHANNELS 3 Zrotation Yrotation Xrotation
			JOINT LeftFoot
			{
				OFFSET -0.013596 -0.397961 -0.043693
				CHANNELS 3 Zrotation Yrotation Xrotation
				JOINT LeftToe
				{
					OFFSET 0.026358 -0.055791 0.119288
					CHANNELS 3 Zrotation Yrotation Xrotation
					End Site
					{
						OFFSET 0.000000 0.000000 0.000000
					}
				}
			}
		}
	}
	JOINT RightUpLeg
	{
		OFFSET -0.067670 -0.090522 -0.004320
		CHANNELS 3 Zrotation Yrotation Xrotation
		JOINT RightLeg
		{
			OFFSET -0.038290 -0.382569 -0.008850
			CHANNELS 3 Zrotation Yrotation Xrotation
			JOINT RightFoot
			{
				OFFSET 0.015774 -0.398415 -0.042312
				CHANNELS 3 Zrotation Yrotation Xrotation
				JOINT RightToe
				{
					OFFSET -0.025372 -0.048144 0.123348
					CHANNELS 3 Zrotation Yrotation Xrotation
					End Site
					{
						OFFSET 0.000000 0.000000 0.000000
					}
				}
			}
		}
	}
	JOINT Spine
	{
		OFFSET -0.002533 0.108963 -0.026696
		CHANNELS 3 Zrotation Yrotation Xrotation
		JOINT Spine1
		{
			OFFSET 0.005487 0.135180 0.001092
			CHANNELS 3 Zrotation Yrotation Xrotation
			JOINT Spine2
			{
				OFFSET 0.001457 0.052922 0.025425
				CHANNELS 3 Zrotation Yrotation Xrotation
				JOINT Neck
				{
					OFFSET -0.002778 0.213870 -0.042857
					CHANNELS 3 Zrotation Yrotation Xrotation
					JOINT Head
					{
						OFFSET 0.005152 0.064970 0.051349
						CHANNELS 3 Zrotation Yrotation Xrotation
						End Site
						{
							OFFSET 0.000000 0.000000 0.000000
						}
					}
				}
				JOINT LeftShoulder
				{
					OFFSET 0.078845 0.121749 -0.034090
					CHANNELS 3 Zrotation Yrotation Xrotation
					JOINT LeftArm
					{
						OFFSET 0.090977 0.030469 -0.008868
						CHANNELS 3 Zrotation Yrotation Xrotation
						JOINT LeftForeArm
						{
							OFFSET 0.259612 -0.012772 -0.027456
							CHANNELS 3 Zrotation Yrotation Xrotation
							JOINT LeftHand
							{
								OFFSET 0.249234 0.008986 -0.001171
								CHANNELS 3 Zrotation Yrotation Xrotation
								End Site
								{
									OFFSET 0.000000 0.000000 0.000000
								}
							}
						}
					}
				}
				JOINT RightShoulder
				{
					OFFSET -0.081759 0.118833 -0.038615
					CHANNELS 3 Zrotation Yrotation Xrotation
					JOINT RightArm
					{
						OFFSET -0.096012 0.032551 -0.009143
						CHANNELS 3 Zrotation Yrotation Xrotation
						JOINT RightForeArm
						{
							OFFSET -0.253742 -0.013329 -0.021401
							CHANNELS 3 Zrotation Yrotation Xrotation
							JOINT RightHand
							{
								OFFSET -0.255298 0.007772 -0.005559
								CHANNELS 3 Zrotation Yrotation Xrotation
								End Site
								{
									OFFSET 0.000000 0.000000 0.000000
								}
							}
						}
					}
				}
			}
		}
	}
}
MOTION
Frames: 15
Frame Time: 0.050000
0.000000 0.903876 0.000000 -1.532763 -7.317031 2.543629 10.636475 0.491122 -26.095011 -6.962213 2.033389 23.516888 5.298043 10.959795 -0.579260 0.000000 0.000000 0.000000 3.432085 -0.252597 0.895514 2.747945 -0.038753 8.549632 -3.821575 -0.736242 -15.014423 0.000000 0.000000 0.000000 3.477089 -0.465213 5.976940 -4.389786 2.270820 3.418381 -0.588915 7.070919 3.876135 2.231869 0.260127 -16.864415 0.000000 0.000000 0.000000 -35.037428 -14.783021 5.286381 -27.278233 -1.072087 -2.470056 13.547638 -33.889204 -2.951317 0.000000 0.000000 0.000000 29.307387 13.294859 7.599322 39.023722 4.370873 -2.854310 -6.568462 36.229221 -0.536209 0.000000 0.000000 0.000000 
0.000150 0.902867 0.006040 -1.875582 -7.325283 2.651454 10.642255 0.534968 -27.270012 -5.202002 1.198806 18.823570 3.871768 8.468846 1.933553 0.000000 0.000000 0.000000 4.600654 -0.359701 1.292979 1.221752 0.212396 8.614102 -3.370257 0.336963 -14.261940 0.000000 0.000000 0.000000 4.731007 -0.560020 6.119107 -4.109424 2.105324 3.001131 -1.593560 7.654704 4.080935 2.994968 0.294789 -20.562281 0.000000 0.000000 0.000000 -35.010738 -14.883475 4.935716 -27.907694 -0.559398 -2.537008 14.243021 -35.360355 -3.366140 0.000000 0.000000 0.000000 29.197562 12.519535 7.439159 39.239694 5.001722 -2.823593 -7.352456 37.267688 -0.712188 0.000000 0.000000 0.000000 
0.001697 0.902059 0.014982 -1.620737 -6.770920 0.831954 9.409896 0.185615 -26.352197 -2.604533 0.342667 15.073649 2.807317 6.495964 2.508458 0.000000 0.000000 0.000000 4.139820 -0.709518 4.420016 2.377978 -0.024773 7.477751 -3.452187 -0.261122 -14.177138 0.000000 0.000000 0.000000 5.531970 -0.739147 8.121924 -4.019288 1.951492 0.381942 -2.058867 8.466916 7.208141 4.499660 -0.616648 -19.175624 0.000000 0.000000 0.000000 -34.516059 -16.568012 5.788074 -28.879572 0.084369 -2.832254 16.407458 -33.902406 -3.924826 0.000000 0.000000 0.000000 31.331248 12.875136 8.512355 36.918608 6.186914 -2.794961 -9.470912 35.581001 -1.262103 0.000000 0.000000 0.000000 
0.005121 0.903249 0.026692 -1.451758 -8.386998 0.503197 9.371285 0.296076 -25.517023 -2.284041 0.272614 10.819196 0.961442 3.469159 4.896543 0.000000 0.000000 0.000000 3.766470 -0.746259 5.014716 2.249778 0.034956 8.079809 -3.383832 -0.042185 -13.532578 0.000000 0.000000 0.000000 5.261714 -0.701811 8.157772 -3.895465 1.956183 1.697773 -1.946127 9.860984 6.379349 5.921113 -1.239878 -20.016583 0.000000 0.000000 0.000000 -33.697723 -16.480999 5.350739 -29.524230 0.967668 -2.984377 14.455017 -33.714618 -3.351287 0.000000 0.000000 0.000000 31.769913 14.246938 9.765298 36.159190 6.274999 -2.727114 -10.267899 33.494927 -1.435697 0.000000 0.000000 0.000000 
0.010940 0.901631 0.040905 -1.327625 -9.646996 0.597076 8.805473 0.246306 -24.965433 -1.868026 0.198351 8.960393 0.205396 1.867315 4.564676 0.000000 0.000000 0.000000 2.651894 -0.687722 5.327684 2.210118 0.061060 8.181895 -2.929666 1.811341 -13.344904 0.000000 0.000000 0.000000 5.990829 -0.719467 7.809074 -4.197057 2.137137 2.035701 -1.637007 11.214963 6.723964 6.559525 -1.676389 -19.085775 0.000000 0.000000 0.000000 -33.482360 -16.765995 5.233476 -30.695509 1.672777 -3.210260 13.560324 -34.045042 -3.155711 0.000000 0.000000 0.000000 32.162913 13.294033 9.456991 34.785692 7.257706 -2.528486 -10.819934 32.000185 -1.487126 0.000000 0.000000 0.000000 
0.019014 0.900111 0.057516 -1.439275 -10.820765 1.263459 8.402705 0.202756 -24.153763 -1.366355 0.112592 7.572243 -0.169818 1.079532 4.553833 0.000000 0.000000 0.000000 2.065832 -0.624978 5.203911 1.783975 0.187337 9.199154 -3.007175 2.449029 -13.928906 0.000000 0.000000 0.000000 6.478408 -0.772865 7.983591 -3.969169 2.032696 2.095254 -0.905644 11.720861 6.397603 6.289973 -1.526162 -19.143344 0.000000 0.000000 0.000000 -33.224080 -16.556160 5.173670 -32.963439 2.854578 -3.773156 12.570431 -34.287787 -2.877335 0.000000 0.000000 0.000000 31.694924 14.326740 10.004554 34.181792 7.332876 -2.398783 -10.293851 30.383492 -1.311199 0.000000 0.000000 0.000000 
0.029067 0.898123 0.076093 -1.227854 -12.066676 1.826507 7.699518 0.118305 -24.171333 -1.537663 0.166279 8.043786 -0.072640 1.142265 4.363592 0.000000 0.000000 0.000000 0.706586 -0.496502 5.189020 1.224988 0.334990 9.976647 -3.045476 3.090224 -14.310525 0.000000 0.000000 0.000000 7.073238 -0.841934 8.285154 -3.921048 1.979046 1.443530 -0.248223 12.274547 6.424958 6.519245 -1.699652 -19.069735 0.000000 0.000000 0.000000 -32.045162 -15.185147 4.345361 -35.151118 3.416642 -4.271310 9.301734 -36.222777 -2.000549 0.000000 0.000000 0.000000 31.153660 14.193052 9.684539 33.340510 7.006631 -2.375824 -9.599880 29.865639 -1.142499 0.000000 0.000000 0.000000 
0.040856 0.895918 0.096110 -1.012637 -12.841035 2.067462 6.942924 0.005129 -24.725596 -1.354614 0.162920 10.797659 -0.339232 0.410627 3.701916 0.000000 0.000000 0.000000 -1.019886 -0.346751 5.554540 0.914406 0.458207 11.007859 -3.011377 3.466796 -14.345341 0.000000 0.000000 0.000000 7.196924 -0.944307 9.431302 -3.805176 1.956112 1.937442 0.432342 12.546300 5.497288 6.437715 -1.625264 -19.287629 0.000000 0.000000 0.000000 -31.253090 -14.163354 3.677638 -36.520996 4.165500 -4.638934 7.127481 -37.336824 -1.363704 0.000000 0.000000 0.000000 30.528509 14.272530 9.525668 32.951695 6.614076 -2.348114 -9.384231 28.128851 -1.034235 0.000000 0.000000 0.000000 
0.053820 0.893579 0.117275 -0.699513 -14.541053 2.688209 6.024250 -0.080508 -25.525650 -1.550430 0.308690 13.603297 0.399701 1.363035 2.062906 0.000000 0.000000 0.000000 -2.786549 -0.107815 5.064950 0.203419 0.738666 12.810156 -2.869123 4.674221 -14.507500 0.000000 0.000000 0.000000 7.255055 -1.034161 10.594991 -3.768074 1.906181 1.280871 1.058136 13.393925 5.668158 7.128063 -1.959123 -19.817369 0.000000 0.000000 0.000000 -30.490397 -14.122297 3.757994 -38.022356 4.557036 -5.019227 7.032584 -38.430380 -1.382298 0.000000 0.000000 0.000000 30.122179 14.328233 9.439156 32.370551 6.210553 -2.387352 -8.598845 26.441506 -0.812435 0.000000 0.000000 0.000000 
0.067525 0.890266 0.138878 -0.626259 -16.067752 3.367112 5.421228 -0.077450 -26.834550 -2.140621 0.661215 17.168737 0.897842 1.650823 -0.871368 0.000000 0.000000 0.000000 -4.768771 0.175555 4.162096 -0.315322 1.110269 15.557547 -2.858075 4.403136 -13.885322 0.000000 0.000000 0.000000 7.058040 -1.072163 11.472861 -3.619346 1.871855 1.692766 1.865478 13.929681 5.522958 7.171898 -1.890335 -20.626052 0.000000 0.000000 0.000000 -30.952194 -13.569772 3.517438 -38.096353 4.480825 -5.020498 6.482807 -40.035281 -1.227237 0.000000 0.000000 0.000000 30.662973 15.092218 9.905775 31.526282 4.995421 -2.553997 -9.118955 24.087034 -0.852592 0.000000 0.000000 0.000000 
0.081633 0.885201 0.160374 -0.712770 -17.391211 3.985061 4.743821 -0.105971 -27.955821 -2.484030 1.059979 20.949042 1.034977 1.190059 -4.106689 0.000000 0.000000 0.000000 -6.404937 0.435031 2.098181 -0.558535 1.651424 19.737511 -2.998352 4.540655 -14.177582 0.000000 0.000000 0.000000 7.079165 -1.159028 12.912442 -3.496459 1.890481 2.563565 2.116019 13.925782 4.377642 7.522942 -2.140080 -20.549686 0.000000 0.000000 0.000000 -31.559067 -14.793169 4.550531 -37.949544 4.756441 -5.040882 7.932216 -40.465587 -1.736392 0.000000 0.000000 0.000000 31.188221 16.011610 10.361048 31.111497 4.013504 -2.612409 -9.027582 20.838287 -0.722334 0.000000 0.000000 0.000000 
0.095956 0.876794 0.181213 -0.803691 -17.912327 4.035053 4.402368 -0.098997 -29.004200 -3.349504 1.830391 25.999559 1.866860 2.194128 -8.013634 0.000000 0.000000 0.000000 -7.559609 0.595716 0.089550 -1.654673 2.679779 24.906432 -3.155486 4.748598 -14.801354 0.000000 0.000000 0.000000 6.819689 -1.179454 14.006536 -2.862120 1.609928 3.030137 1.947703 13.299748 4.534723 8.013936 -2.545761 -20.299683 0.000000 0.000000 0.000000 -32.674019 -16.119655 5.893857 -37.344174 3.934184 -4.815372 10.311076 -41.024856 -2.561605 0.000000 0.000000 0.000000 32.641698 17.226823 11.125759 30.213729 2.472711 -2.806721 -9.027308 18.858796 -0.660794 0.000000 0.000000 0.000000 
0.110062 0.864366 0.201035 -1.397839 -18.855339 3.968974 4.154776 -0.000642 -30.480333 -3.139635 2.526218 32.476769 2.587086 3.026079 -12.067064 0.000000 0.000000 0.000000 -8.849231 0.749979 -1.705607 -1.912200 3.654912 29.924454 -3.558140 4.967164 -16.165434 0.000000 0.000000 0.000000 6.799785 -1.221234 15.431070 -2.835305 1.697232 4.090066 1.602824 13.007201 3.478472 8.833421 -3.137362 -19.683734 0.000000 0.000000 0.000000 -33.449214 -17.851452 7.348919 -36.325588 3.448119 -4.513205 12.005328 -40.407674 -3.101237 0.000000 0.000000 0.000000 33.889953 17.218866 11.050964 29.534583 1.295274 -2.890218 -8.645849 17.448586 -0.559042 0.000000 0.000000 0.000000 
0.123186 0.851616 0.219515 -1.829792 -19.349293 3.941452 3.578282 -0.016762 -32.215802 -2.717146 3.211174 39.043680 3.448124 4.253836 -16.146877 0.000000 0.000000 0.000000 -9.844708 0.858021 -3.668791 -2.175880 4.870009 35.424938 -3.606132 5.267448 -16.682637 0.000000 0.000000 0.000000 6.830646 -1.242349 16.195432 -2.306619 1.464896 4.525697 1.030819 12.185267 3.458992 9.155069 -3.467865 -19.365076 0.000000 0.000000 0.000000 -33.954818 -19.498011 9.050680 -35.670914 2.194347 -4.206048 13.966615 -39.995764 -3.702308 0.000000 0.000000 0.000000 34.719446 17.253127 10.759541 29.996505 -0.210124 -3.152075 -9.509876 17.334799 -0.672491 0.000000 0.000000 0.000000 
0.134167 0.837590 0.236155 -2.213785 -20.209210 3.505874 3.356730 0.054499 -32.902223 -2.743795 4.102770 43.966132 4.205341 5.513040 -19.885048 0.000000 0.000000 0.000000 -10.848687 0.954167 -5.588566 -1.906462 6.066398 40.932532 -3.716833 4.408016 -16.503547 0.000000 0.000000 0.000000 6.138800 -1.123951 16.612936 -1.881886 1.319646 5.305249 0.263990 11.382104 2.939097 8.994296 -3.736105 -17.759761 0.000000 0.000000 0.000000 -34.636807 -20.989711 10.691747 -34.582706 1.589807 -4.004773 15.133930 -38.557051 -3.898181 0.000000 0.000000 0.000000 35.802156 16.887926 10.112964 30.046586 -2.088234 -3.419609 -9.098082 18.482173 -0.685386 0.000000 0.000000 0.000000 
